<?xml version="1.0" encoding="utf-8"?>
<!-- Generator: Adobe Illustrator 16.0.0, SVG Export Plug-In . SVG Version: 6.00 Build 0)  -->
<!DOCTYPE svg PUBLIC "-//W3C//DTD SVG 1.1//EN" "http://www.w3.org/Graphics/SVG/1.1/DTD/svg11.dtd">
<svg version="1.1" id="Layer_1" xmlns="http://www.w3.org/2000/svg" xmlns:xlink="http://www.w3.org/1999/xlink" x="0px" y="0px"
	 width="550px" height="175px" viewBox="0 0 550 175" enable-background="new 0 0 550 175" xml:space="preserve">
<g>
	<path fill-rule="evenodd" clip-rule="evenodd" fill="#7030A0" d="M417.644,75.65c0-3.549,2.922-6.425,6.526-6.425h56.811
		c3.604,0,6.525,2.876,6.525,6.425v25.701c0,3.548-2.922,6.425-6.525,6.425H424.17c-3.604,0-6.526-2.877-6.526-6.425V75.65z"/>
	<path fill="none" stroke="#BFBFBF" stroke-width="0.7567" stroke-miterlimit="8" d="M417.644,75.65
		c0-3.549,2.922-6.425,6.526-6.425h56.811c3.604,0,6.525,2.876,6.525,6.425v25.701c0,3.548-2.922,6.425-6.525,6.425H424.17
		c-3.604,0-6.526-2.877-6.526-6.425V75.65z"/>
	<text transform="matrix(1.0156 0 0 1 430.4922 85.9531)"><tspan x="0" y="0" fill="#FFFFFF" font-family="'Tahoma'" font-size="9.8268">W</tspan><tspan x="9.068" y="0" fill="#FFFFFF" font-family="'Tahoma'" font-size="9.8268">a</tspan><tspan x="14.355" y="0" fill="#FFFFFF" font-family="'Tahoma'" font-size="9.8268">t</tspan><tspan x="17.386" y="0" fill="#FFFFFF" font-family="'Tahoma'" font-size="9.8268">c</tspan><tspan x="21.92" y="0" fill="#FFFFFF" font-family="'Tahoma'" font-size="9.8268">h</tspan><tspan x="27.212" y="0" fill="#FFFFFF" font-family="'Tahoma'" font-size="9.8268">O</tspan><tspan x="34.018" y="0" fill="#FFFFFF" font-family="'Tahoma'" font-size="9.8268">u</tspan><tspan x="39.311" y="0" fill="#FFFFFF" font-family="'Tahoma'" font-size="9.8268">t</tspan><tspan x="42.342" y="0" fill="#FFFFFF" font-family="'Tahoma'" font-size="9.8268"> </tspan></text>
	<g>
		<defs>
			<rect id="SVGID_1_" x="419.563" y="71.114" width="65.257" height="34.771"/>
		</defs>
		<clipPath id="SVGID_2_">
			<use xlink:href="#SVGID_1_"  overflow="visible"/>
		</clipPath>
		<g clip-path="url(#SVGID_2_)">
			<text transform="matrix(1.0156 0 0 1 436.6328 98.0469)"><tspan x="0" y="0" fill="#FFFFFF" font-family="'Tahoma'" font-size="9.8268">D</tspan><tspan x="6.056" y="0" fill="#FFFFFF" font-family="'Tahoma'" font-size="9.8268">i</tspan><tspan x="8.321" y="0" fill="#FFFFFF" font-family="'Tahoma'" font-size="9.8268">s</tspan><tspan x="12.854" y="0" fill="#FFFFFF" font-family="'Tahoma'" font-size="9.8268">p</tspan><tspan x="18.148" y="0" fill="#FFFFFF" font-family="'Tahoma'" font-size="9.8268">l</tspan><tspan x="20.412" y="0" fill="#FFFFFF" font-family="'Tahoma'" font-size="9.8268">a</tspan><tspan x="25.699" y="0" fill="#FFFFFF" font-family="'Tahoma'" font-size="9.8268">y</tspan></text>
		</g>
	</g>
	<path fill-rule="evenodd" clip-rule="evenodd" fill="#7030A0" d="M417.644,29.54c0-3.549,2.922-6.425,6.526-6.425h56.811
		c3.604,0,6.525,2.876,6.525,6.425V55.24c0,3.548-2.922,6.425-6.525,6.425H424.17c-3.604,0-6.526-2.877-6.526-6.425V29.54z"/>
	<path fill="none" stroke="#BFBFBF" stroke-width="0.7567" stroke-miterlimit="8" d="M417.644,29.54
		c0-3.549,2.922-6.425,6.526-6.425h56.811c3.604,0,6.525,2.876,6.525,6.425V55.24c0,3.548-2.922,6.425-6.525,6.425H424.17
		c-3.604,0-6.526-2.877-6.526-6.425V29.54z"/>
	<text transform="matrix(1.0156 0 0 1 430.25 39.9609)"><tspan x="0" y="0" fill="#FFFFFF" font-family="'Tahoma'" font-size="9.8268">W</tspan><tspan x="9.068" y="0" fill="#FFFFFF" font-family="'Tahoma'" font-size="9.8268">a</tspan><tspan x="14.355" y="0" fill="#FFFFFF" font-family="'Tahoma'" font-size="9.8268">t</tspan><tspan x="17.386" y="0" fill="#FFFFFF" font-family="'Tahoma'" font-size="9.8268">c</tspan><tspan x="21.92" y="0" fill="#FFFFFF" font-family="'Tahoma'" font-size="9.8268">h</tspan><tspan x="27.212" y="0" fill="#FFFFFF" font-family="'Tahoma'" font-size="9.8268">O</tspan><tspan x="34.018" y="0" fill="#FFFFFF" font-family="'Tahoma'" font-size="9.8268">u</tspan><tspan x="39.311" y="0" fill="#FFFFFF" font-family="'Tahoma'" font-size="9.8268">t</tspan><tspan x="42.342" y="0" fill="#FFFFFF" font-family="'Tahoma'" font-size="9.8268"> </tspan></text>
	<g>
		<defs>
			<rect id="SVGID_3_" x="418.795" y="25.004" width="66.024" height="34.771"/>
		</defs>
		<clipPath id="SVGID_4_">
			<use xlink:href="#SVGID_3_"  overflow="visible"/>
		</clipPath>
		<g clip-path="url(#SVGID_4_)">
			<text transform="matrix(1.0156 0 0 1 436.3906 52.0547)"><tspan x="0" y="0" fill="#FFFFFF" font-family="'Tahoma'" font-size="9.8268">D</tspan><tspan x="6.056" y="0" fill="#FFFFFF" font-family="'Tahoma'" font-size="9.8268">i</tspan><tspan x="8.321" y="0" fill="#FFFFFF" font-family="'Tahoma'" font-size="9.8268">s</tspan><tspan x="12.854" y="0" fill="#FFFFFF" font-family="'Tahoma'" font-size="9.8268">p</tspan><tspan x="18.148" y="0" fill="#FFFFFF" font-family="'Tahoma'" font-size="9.8268">l</tspan><tspan x="20.412" y="0" fill="#FFFFFF" font-family="'Tahoma'" font-size="9.8268">a</tspan><tspan x="25.699" y="0" fill="#FFFFFF" font-family="'Tahoma'" font-size="9.8268">y</tspan></text>
		</g>
	</g>
	<path fill-rule="evenodd" clip-rule="evenodd" fill="#7030A0" d="M418.411,122.516c0-3.548,2.922-6.425,6.526-6.425h56.811
		c3.604,0,6.525,2.877,6.525,6.425v25.701c0,3.548-2.922,6.425-6.525,6.425h-56.811c-3.604,0-6.526-2.877-6.526-6.425V122.516z"/>
	<path fill="none" stroke="#BFBFBF" stroke-width="0.7567" stroke-miterlimit="8" d="M418.411,122.516
		c0-3.548,2.922-6.425,6.526-6.425h56.811c3.604,0,6.525,2.877,6.525,6.425v25.701c0,3.548-2.922,6.425-6.525,6.425h-56.811
		c-3.604,0-6.526-2.877-6.526-6.425V122.516z"/>
	<text transform="matrix(1.0156 0 0 1 431.2188 132.8125)"><tspan x="0" y="0" fill="#FFFFFF" font-family="'Tahoma'" font-size="9.8268">W</tspan><tspan x="9.068" y="0" fill="#FFFFFF" font-family="'Tahoma'" font-size="9.8268">a</tspan><tspan x="14.355" y="0" fill="#FFFFFF" font-family="'Tahoma'" font-size="9.8268">t</tspan><tspan x="17.386" y="0" fill="#FFFFFF" font-family="'Tahoma'" font-size="9.8268">c</tspan><tspan x="21.92" y="0" fill="#FFFFFF" font-family="'Tahoma'" font-size="9.8268">h</tspan><tspan x="27.212" y="0" fill="#FFFFFF" font-family="'Tahoma'" font-size="9.8268">O</tspan><tspan x="34.018" y="0" fill="#FFFFFF" font-family="'Tahoma'" font-size="9.8268">u</tspan><tspan x="39.311" y="0" fill="#FFFFFF" font-family="'Tahoma'" font-size="9.8268">t</tspan><tspan x="42.342" y="0" fill="#FFFFFF" font-family="'Tahoma'" font-size="9.8268"> </tspan></text>
	<g>
		<defs>
			<rect id="SVGID_5_" x="420.331" y="117.98" width="65.256" height="34.771"/>
		</defs>
		<clipPath id="SVGID_6_">
			<use xlink:href="#SVGID_5_"  overflow="visible"/>
		</clipPath>
		<g clip-path="url(#SVGID_6_)">
			<text transform="matrix(1.0156 0 0 1 437.3594 144.9141)"><tspan x="0" y="0" fill="#FFFFFF" font-family="'Tahoma'" font-size="9.8268">D</tspan><tspan x="6.056" y="0" fill="#FFFFFF" font-family="'Tahoma'" font-size="9.8268">i</tspan><tspan x="8.321" y="0" fill="#FFFFFF" font-family="'Tahoma'" font-size="9.8268">s</tspan><tspan x="12.854" y="0" fill="#FFFFFF" font-family="'Tahoma'" font-size="9.8268">p</tspan><tspan x="18.148" y="0" fill="#FFFFFF" font-family="'Tahoma'" font-size="9.8268">l</tspan><tspan x="20.413" y="0" fill="#FFFFFF" font-family="'Tahoma'" font-size="9.8268">a</tspan><tspan x="25.699" y="0" fill="#FFFFFF" font-family="'Tahoma'" font-size="9.8268">y</tspan></text>
		</g>
	</g>
	<path fill="none" stroke="#BFBFBF" stroke-width="0.7567" stroke-miterlimit="8" d="M354.691,84.615
		c15.771,0,31.544-10.462,31.544-20.923c0-10.462,15.772-20.924,31.545-20.924"/>
	<path fill="none" stroke="#BFBFBF" stroke-width="0.7567" stroke-miterlimit="8" d="M354.691,91.901
		c16.018,0,32.035,10.895,32.035,21.788c0,10.895,16.018,21.788,32.035,21.788"/>
	
		<line fill="none" stroke="#BFBFBF" stroke-width="0.7567" stroke-miterlimit="8" x1="355.459" y1="88.878" x2="417.578" y2="88.963"/>
	<path fill-rule="evenodd" clip-rule="evenodd" fill="#00B0F0" d="M183.49,75.65c0-3.549,2.922-6.425,6.526-6.425h56.811
		c3.604,0,6.526,2.876,6.526,6.425v25.701c0,3.548-2.922,6.425-6.526,6.425h-56.811c-3.604,0-6.526-2.877-6.526-6.425V75.65z"/>
	<path fill="none" stroke="#BFBFBF" stroke-width="0.7567" stroke-miterlimit="8" d="M183.49,75.65c0-3.549,2.922-6.425,6.526-6.425
		h56.811c3.604,0,6.526,2.876,6.526,6.425v25.701c0,3.548-2.922,6.425-6.526,6.425h-56.811c-3.604,0-6.526-2.877-6.526-6.425V75.65z
		"/>
	<text transform="matrix(1.0156 0 0 1 206.2188 91.9531)"><tspan x="0" y="0" fill="#FFFFFF" font-family="'Tahoma'" font-size="9.8268">P</tspan><tspan x="5.299" y="0" fill="#FFFFFF" font-family="'Tahoma'" font-size="9.8268">r</tspan><tspan x="9.076" y="0" fill="#FFFFFF" font-family="'Tahoma'" font-size="9.8268">o</tspan><tspan x="14.373" y="0" fill="#FFFFFF" font-family="'Tahoma'" font-size="9.8268">x</tspan><tspan x="18.913" y="0" fill="#FFFFFF" font-family="'Tahoma'" font-size="9.8268">y</tspan></text>
	
		<line fill="none" stroke="#BFBFBF" stroke-width="0.7567" stroke-miterlimit="8" x1="253.353" y1="88.878" x2="280.49" y2="88.878"/>
	<path fill-rule="evenodd" clip-rule="evenodd" fill="#FFC000" d="M64.494,36.343c0-3.549,2.922-6.425,6.526-6.425h56.811
		c3.604,0,6.526,2.876,6.526,6.425v25.7c0,3.549-2.922,6.426-6.526,6.426H71.02c-3.604,0-6.526-2.877-6.526-6.426V36.343z"/>
	<path fill="none" stroke="#BFBFBF" stroke-width="0.7567" stroke-miterlimit="8" d="M64.494,36.343
		c0-3.549,2.922-6.425,6.526-6.425h56.811c3.604,0,6.526,2.876,6.526,6.425v25.7c0,3.549-2.922,6.426-6.526,6.426H71.02
		c-3.604,0-6.526-2.877-6.526-6.426V36.343z"/>
	<text transform="matrix(1.0156 0 0 1 89.8125 52.4219)"><tspan x="0" y="0" fill="#FFFFFF" font-family="'Tahoma'" font-size="9.8268">i</tspan><tspan x="2.265" y="0" fill="#FFFFFF" font-family="'Tahoma'" font-size="9.8268">P</tspan><tspan x="7.564" y="0" fill="#FFFFFF" font-family="'Tahoma'" font-size="9.8268">a</tspan><tspan x="12.85" y="0" fill="#FFFFFF" font-family="'Tahoma'" font-size="9.8268">d</tspan></text>
	<path fill-rule="evenodd" clip-rule="evenodd" fill="#FFC000" d="M66.797,114.957c0-3.549,2.921-6.426,6.526-6.426h56.811
		c3.604,0,6.526,2.877,6.526,6.426v25.7c0,3.549-2.922,6.426-6.526,6.426H73.323c-3.604,0-6.526-2.877-6.526-6.426V114.957z"/>
	<path fill="none" stroke="#BFBFBF" stroke-width="0.7567" stroke-miterlimit="8" d="M66.797,114.957
		c0-3.549,2.921-6.426,6.526-6.426h56.811c3.604,0,6.526,2.877,6.526,6.426v25.7c0,3.549-2.922,6.426-6.526,6.426H73.323
		c-3.604,0-6.526-2.877-6.526-6.426V114.957z"/>
	<text transform="matrix(1.0156 0 0 1 91.6094 131.25)"><tspan x="0" y="0" fill="#FFFFFF" font-family="'Tahoma'" font-size="9.8268">i</tspan><tspan x="2.265" y="0" fill="#FFFFFF" font-family="'Tahoma'" font-size="9.8268">P</tspan><tspan x="7.564" y="0" fill="#FFFFFF" font-family="'Tahoma'" font-size="9.8268">a</tspan><tspan x="12.85" y="0" fill="#FFFFFF" font-family="'Tahoma'" font-size="9.8268">d</tspan></text>
	<path fill="none" stroke="#BFBFBF" stroke-width="0.7567" stroke-miterlimit="8" d="M134.356,48.815
		c12.276,0,24.553,9.05,24.553,18.101s12.276,18.101,24.553,18.101"/>
	<polygon fill-rule="evenodd" clip-rule="evenodd" fill="#00B0F0" points="192.703,80.563 183.49,85.099 192.703,89.634 
		192.703,80.563 	"/>
	<polygon fill="none" stroke="#00B0F0" stroke-width="0.7685" stroke-miterlimit="8" points="192.703,80.563 183.49,85.099 
		192.703,89.634 192.703,80.563 	"/>
	<path fill-rule="evenodd" clip-rule="evenodd" fill="#7030A0" d="M280.223,75.65c0-3.549,2.922-6.425,6.525-6.425h62.185
		c3.604,0,6.526,2.876,6.526,6.425v25.701c0,3.548-2.922,6.425-6.526,6.425h-62.185c-3.604,0-6.525-2.877-6.525-6.425V75.65z"/>
	<path fill="none" stroke="#BFBFBF" stroke-width="0.7567" stroke-miterlimit="8" d="M280.223,75.65
		c0-3.549,2.922-6.425,6.525-6.425h62.185c3.604,0,6.526,2.876,6.526,6.425v25.701c0,3.548-2.922,6.425-6.526,6.425h-62.185
		c-3.604,0-6.525-2.877-6.525-6.425V75.65z"/>
	<text transform="matrix(1.0156 0 0 1 296.2656 85.875)"><tspan x="0" y="0" fill="#FFFFFF" font-family="'Tahoma'" font-size="9.8268">W</tspan><tspan x="9.068" y="0" fill="#FFFFFF" font-family="'Tahoma'" font-size="9.8268">a</tspan><tspan x="14.355" y="0" fill="#FFFFFF" font-family="'Tahoma'" font-size="9.8268">t</tspan><tspan x="17.386" y="0" fill="#FFFFFF" font-family="'Tahoma'" font-size="9.8268">c</tspan><tspan x="21.92" y="0" fill="#FFFFFF" font-family="'Tahoma'" font-size="9.8268">h</tspan><tspan x="27.212" y="0" fill="#FFFFFF" font-family="'Tahoma'" font-size="9.8268">O</tspan><tspan x="34.018" y="0" fill="#FFFFFF" font-family="'Tahoma'" font-size="9.8268">u</tspan><tspan x="39.311" y="0" fill="#FFFFFF" font-family="'Tahoma'" font-size="9.8268">t</tspan><tspan x="42.342" y="0" fill="#FFFFFF" font-family="'Tahoma'" font-size="9.8268"> </tspan></text>
	<g>
		<defs>
			<rect id="SVGID_7_" x="282.142" y="71.114" width="71.397" height="34.771"/>
		</defs>
		<clipPath id="SVGID_8_">
			<use xlink:href="#SVGID_7_"  overflow="visible"/>
		</clipPath>
		<g clip-path="url(#SVGID_8_)">
			<text transform="matrix(1.0156 0 0 1 294.7344 97.9609)"><tspan x="0" y="0" fill="#FFFFFF" font-family="'Tahoma'" font-size="9.8268">P</tspan><tspan x="5.299" y="0" fill="#FFFFFF" font-family="'Tahoma'" font-size="9.8268">r</tspan><tspan x="9.076" y="0" fill="#FFFFFF" font-family="'Tahoma'" font-size="9.8268">o</tspan><tspan x="14.372" y="0" fill="#FFFFFF" font-family="'Tahoma'" font-size="9.8268">d</tspan><tspan x="19.666" y="0" fill="#FFFFFF" font-family="'Tahoma'" font-size="9.8268">u</tspan><tspan x="24.96" y="0" fill="#FFFFFF" font-family="'Tahoma'" font-size="9.8268">c</tspan><tspan x="29.493" y="0" fill="#FFFFFF" font-family="'Tahoma'" font-size="9.8268">t</tspan><tspan x="32.525" y="0" fill="#FFFFFF" font-family="'Tahoma'" font-size="9.8268">i</tspan><tspan x="34.79" y="0" fill="#FFFFFF" font-family="'Tahoma'" font-size="9.8268">o</tspan><tspan x="40.087" y="0" fill="#FFFFFF" font-family="'Tahoma'" font-size="9.8268">n</tspan></text>
		</g>
	</g>
	<polygon fill-rule="evenodd" clip-rule="evenodd" fill="#00B0F0" points="192.703,87.366 184.258,91.901 192.703,96.437 
		192.703,87.366 	"/>
	<polygon fill="none" stroke="#00B0F0" stroke-width="0.7685" stroke-miterlimit="8" points="192.703,87.366 184.258,91.901 
		192.703,96.437 192.703,87.366 	"/>
	<path fill="none" stroke="#BFBFBF" stroke-width="0.7567" stroke-miterlimit="8" d="M136.66,127.973
		c11.902,0,23.804-9.018,23.804-18.036c0-9.018,11.902-18.035,23.804-18.035"/>
</g>
</svg>
